<mxfile host="app.diagrams.net" modified="2023-12-21T12:29:36.249Z" agent="Mozilla/5.0 (Windows NT 10.0; Win64; x64) AppleWebKit/537.36 (KHTML, like Gecko) Chrome/120.0.0.0 Safari/537.36" etag="YoijSj2HybKMiPZVBCIA" version="22.1.11" type="device">
  <diagram id="R2lEEEUBdFMjLlhIrx00" name="Page-1">
    <mxGraphModel dx="1434" dy="780" grid="1" gridSize="10" guides="1" tooltips="1" connect="1" arrows="1" fold="1" page="1" pageScale="1" pageWidth="850" pageHeight="1100" math="0" shadow="0" extFonts="Permanent Marker^https://fonts.googleapis.com/css?family=Permanent+Marker">
      <root>
        <mxCell id="0" />
        <mxCell id="1" parent="0" />
        <mxCell id="c4icf9OXhYZbjCXFVbX7-1" value="AI Engine" style="whiteSpace=wrap;html=1;aspect=fixed;" parent="1" vertex="1">
          <mxGeometry x="175" y="140" width="140" height="140" as="geometry" />
        </mxCell>
        <mxCell id="c4icf9OXhYZbjCXFVbX7-2" value="OpenAI" style="whiteSpace=wrap;html=1;aspect=fixed;" parent="1" vertex="1">
          <mxGeometry x="470" y="80" width="70" height="70" as="geometry" />
        </mxCell>
        <mxCell id="c4icf9OXhYZbjCXFVbX7-4" value="User prompt in AAC terms" style="shape=parallelogram;perimeter=parallelogramPerimeter;whiteSpace=wrap;html=1;fixedSize=1;" parent="1" vertex="1">
          <mxGeometry x="150" y="20" width="190" height="60" as="geometry" />
        </mxCell>
        <mxCell id="c4icf9OXhYZbjCXFVbX7-6" value="" style="endArrow=classic;html=1;rounded=0;" parent="1" target="c4icf9OXhYZbjCXFVbX7-1" edge="1">
          <mxGeometry width="50" height="50" relative="1" as="geometry">
            <mxPoint x="245" y="80" as="sourcePoint" />
            <mxPoint x="405" y="200" as="targetPoint" />
          </mxGeometry>
        </mxCell>
        <mxCell id="c4icf9OXhYZbjCXFVbX7-7" value="" style="endArrow=classic;startArrow=classic;html=1;rounded=0;exitX=1;exitY=0.5;exitDx=0;exitDy=0;entryX=0;entryY=0.5;entryDx=0;entryDy=0;" parent="1" source="c4icf9OXhYZbjCXFVbX7-1" target="c4icf9OXhYZbjCXFVbX7-2" edge="1">
          <mxGeometry width="50" height="50" relative="1" as="geometry">
            <mxPoint x="355" y="250" as="sourcePoint" />
            <mxPoint x="405" y="200" as="targetPoint" />
            <Array as="points">
              <mxPoint x="370" y="120" />
            </Array>
          </mxGeometry>
        </mxCell>
        <mxCell id="c4icf9OXhYZbjCXFVbX7-8" value="Model&lt;br&gt;Full Prompt&lt;br&gt;Max, Tokens" style="text;html=1;align=center;verticalAlign=middle;resizable=0;points=[];autosize=1;strokeColor=none;fillColor=none;" parent="1" vertex="1">
          <mxGeometry x="375" y="60" width="90" height="60" as="geometry" />
        </mxCell>
        <mxCell id="c4icf9OXhYZbjCXFVbX7-9" value="Response" style="text;html=1;align=center;verticalAlign=middle;resizable=0;points=[];autosize=1;strokeColor=none;fillColor=none;" parent="1" vertex="1">
          <mxGeometry x="385" y="120" width="80" height="30" as="geometry" />
        </mxCell>
        <mxCell id="c4icf9OXhYZbjCXFVbX7-10" value="" style="endArrow=classic;html=1;rounded=0;exitX=0.5;exitY=1;exitDx=0;exitDy=0;entryX=0.5;entryY=0;entryDx=0;entryDy=0;" parent="1" source="c4icf9OXhYZbjCXFVbX7-1" target="c4icf9OXhYZbjCXFVbX7-11" edge="1">
          <mxGeometry width="50" height="50" relative="1" as="geometry">
            <mxPoint x="355" y="250" as="sourcePoint" />
            <mxPoint x="245" y="390" as="targetPoint" />
          </mxGeometry>
        </mxCell>
        <mxCell id="c4icf9OXhYZbjCXFVbX7-11" value="JSON Output" style="shape=parallelogram;perimeter=parallelogramPerimeter;whiteSpace=wrap;html=1;fixedSize=1;" parent="1" vertex="1">
          <mxGeometry x="150" y="350" width="190" height="60" as="geometry" />
        </mxCell>
        <mxCell id="c4icf9OXhYZbjCXFVbX7-12" value="User prompt in AAC terms" style="shape=parallelogram;perimeter=parallelogramPerimeter;whiteSpace=wrap;html=1;fixedSize=1;" parent="1" vertex="1">
          <mxGeometry x="80" y="530" width="185" height="60" as="geometry" />
        </mxCell>
        <mxCell id="c4icf9OXhYZbjCXFVbX7-13" value="AI Engine" style="text;html=1;align=center;verticalAlign=middle;resizable=0;points=[];autosize=1;strokeColor=none;fillColor=none;" parent="1" vertex="1">
          <mxGeometry x="70" y="470" width="80" height="30" as="geometry" />
        </mxCell>
        <mxCell id="c4icf9OXhYZbjCXFVbX7-14" value="Add context and specifity to the user prompt. i.e: number of pictograms, words exclusions, etc" style="whiteSpace=wrap;html=1;aspect=fixed;" parent="1" vertex="1">
          <mxGeometry x="385" y="580" width="130" height="130" as="geometry" />
        </mxCell>
        <mxCell id="c4icf9OXhYZbjCXFVbX7-16" value="Model" style="shape=parallelogram;perimeter=parallelogramPerimeter;whiteSpace=wrap;html=1;fixedSize=1;" parent="1" vertex="1">
          <mxGeometry x="80" y="620" width="185" height="60" as="geometry" />
        </mxCell>
        <mxCell id="c4icf9OXhYZbjCXFVbX7-17" value="Max Tokens" style="shape=parallelogram;perimeter=parallelogramPerimeter;whiteSpace=wrap;html=1;fixedSize=1;" parent="1" vertex="1">
          <mxGeometry x="80" y="710" width="185" height="60" as="geometry" />
        </mxCell>
        <mxCell id="c4icf9OXhYZbjCXFVbX7-18" value="" style="endArrow=classic;html=1;rounded=0;exitX=1;exitY=0.5;exitDx=0;exitDy=0;entryX=0;entryY=0.25;entryDx=0;entryDy=0;" parent="1" source="c4icf9OXhYZbjCXFVbX7-12" target="c4icf9OXhYZbjCXFVbX7-14" edge="1">
          <mxGeometry width="50" height="50" relative="1" as="geometry">
            <mxPoint x="390" y="510" as="sourcePoint" />
            <mxPoint x="440" y="460" as="targetPoint" />
            <Array as="points">
              <mxPoint x="350" y="570" />
            </Array>
          </mxGeometry>
        </mxCell>
        <mxCell id="c4icf9OXhYZbjCXFVbX7-19" value="" style="endArrow=classic;html=1;rounded=0;exitX=1;exitY=0.5;exitDx=0;exitDy=0;entryX=0;entryY=0.5;entryDx=0;entryDy=0;" parent="1" source="c4icf9OXhYZbjCXFVbX7-16" target="c4icf9OXhYZbjCXFVbX7-14" edge="1">
          <mxGeometry width="50" height="50" relative="1" as="geometry">
            <mxPoint x="390" y="510" as="sourcePoint" />
            <mxPoint x="440" y="460" as="targetPoint" />
          </mxGeometry>
        </mxCell>
        <mxCell id="c4icf9OXhYZbjCXFVbX7-20" value="" style="endArrow=classic;html=1;rounded=0;exitX=1;exitY=0.5;exitDx=0;exitDy=0;entryX=0;entryY=0.75;entryDx=0;entryDy=0;" parent="1" source="c4icf9OXhYZbjCXFVbX7-17" target="c4icf9OXhYZbjCXFVbX7-14" edge="1">
          <mxGeometry width="50" height="50" relative="1" as="geometry">
            <mxPoint x="390" y="510" as="sourcePoint" />
            <mxPoint x="440" y="460" as="targetPoint" />
            <Array as="points">
              <mxPoint x="360" y="720" />
            </Array>
          </mxGeometry>
        </mxCell>
        <mxCell id="c4icf9OXhYZbjCXFVbX7-21" value="Parse JSON" style="whiteSpace=wrap;html=1;aspect=fixed;" parent="1" vertex="1">
          <mxGeometry x="580" y="750" width="130" height="130" as="geometry" />
        </mxCell>
        <mxCell id="c4icf9OXhYZbjCXFVbX7-23" value="Error handling" style="whiteSpace=wrap;html=1;aspect=fixed;" parent="1" vertex="1">
          <mxGeometry x="580" y="580" width="130" height="130" as="geometry" />
        </mxCell>
        <mxCell id="c4icf9OXhYZbjCXFVbX7-24" value="" style="endArrow=classic;html=1;rounded=0;exitX=1;exitY=0.5;exitDx=0;exitDy=0;entryX=0;entryY=0.5;entryDx=0;entryDy=0;" parent="1" source="c4icf9OXhYZbjCXFVbX7-14" target="c4icf9OXhYZbjCXFVbX7-23" edge="1">
          <mxGeometry width="50" height="50" relative="1" as="geometry">
            <mxPoint x="390" y="610" as="sourcePoint" />
            <mxPoint x="440" y="560" as="targetPoint" />
          </mxGeometry>
        </mxCell>
        <mxCell id="c4icf9OXhYZbjCXFVbX7-25" value="" style="endArrow=classic;html=1;rounded=0;exitX=0.5;exitY=1;exitDx=0;exitDy=0;entryX=0.5;entryY=0;entryDx=0;entryDy=0;" parent="1" source="c4icf9OXhYZbjCXFVbX7-23" target="c4icf9OXhYZbjCXFVbX7-21" edge="1">
          <mxGeometry width="50" height="50" relative="1" as="geometry">
            <mxPoint x="390" y="610" as="sourcePoint" />
            <mxPoint x="440" y="560" as="targetPoint" />
          </mxGeometry>
        </mxCell>
        <mxCell id="c4icf9OXhYZbjCXFVbX7-26" value="JSON Output" style="shape=parallelogram;perimeter=parallelogramPerimeter;whiteSpace=wrap;html=1;fixedSize=1;" parent="1" vertex="1">
          <mxGeometry x="60" y="955" width="190" height="60" as="geometry" />
        </mxCell>
        <mxCell id="c4icf9OXhYZbjCXFVbX7-27" value="" style="endArrow=classic;html=1;rounded=0;exitX=0.5;exitY=1;exitDx=0;exitDy=0;entryX=0.5;entryY=0;entryDx=0;entryDy=0;" parent="1" source="c4icf9OXhYZbjCXFVbX7-21" target="KhvxymEsoFg_Cb9MNuDF-5" edge="1">
          <mxGeometry width="50" height="50" relative="1" as="geometry">
            <mxPoint x="400" y="830" as="sourcePoint" />
            <mxPoint x="645" y="960" as="targetPoint" />
          </mxGeometry>
        </mxCell>
        <mxCell id="KhvxymEsoFg_Cb9MNuDF-1" value="Global Symbols" style="whiteSpace=wrap;html=1;aspect=fixed;" vertex="1" parent="1">
          <mxGeometry x="470" y="200" width="70" height="70" as="geometry" />
        </mxCell>
        <mxCell id="KhvxymEsoFg_Cb9MNuDF-2" value="" style="endArrow=classic;startArrow=classic;html=1;rounded=0;exitX=1;exitY=0.5;exitDx=0;exitDy=0;entryX=0;entryY=0.5;entryDx=0;entryDy=0;" edge="1" parent="1" source="c4icf9OXhYZbjCXFVbX7-1" target="KhvxymEsoFg_Cb9MNuDF-1">
          <mxGeometry width="50" height="50" relative="1" as="geometry">
            <mxPoint x="325" y="220" as="sourcePoint" />
            <mxPoint x="480" y="125" as="targetPoint" />
            <Array as="points">
              <mxPoint x="380" y="235" />
            </Array>
          </mxGeometry>
        </mxCell>
        <mxCell id="KhvxymEsoFg_Cb9MNuDF-3" value="List of Word" style="text;html=1;align=center;verticalAlign=middle;resizable=0;points=[];autosize=1;strokeColor=none;fillColor=none;" vertex="1" parent="1">
          <mxGeometry x="375" y="200" width="90" height="30" as="geometry" />
        </mxCell>
        <mxCell id="KhvxymEsoFg_Cb9MNuDF-4" value="Picto Images" style="text;html=1;align=center;verticalAlign=middle;resizable=0;points=[];autosize=1;strokeColor=none;fillColor=none;" vertex="1" parent="1">
          <mxGeometry x="375" y="240" width="90" height="30" as="geometry" />
        </mxCell>
        <mxCell id="KhvxymEsoFg_Cb9MNuDF-5" value="Fetch Pictograms" style="whiteSpace=wrap;html=1;aspect=fixed;" vertex="1" parent="1">
          <mxGeometry x="580" y="920" width="130" height="130" as="geometry" />
        </mxCell>
        <mxCell id="KhvxymEsoFg_Cb9MNuDF-6" value="Global Symbols" style="shape=parallelogram;perimeter=parallelogramPerimeter;whiteSpace=wrap;html=1;fixedSize=1;" vertex="1" parent="1">
          <mxGeometry x="350" y="820" width="185" height="60" as="geometry" />
        </mxCell>
        <mxCell id="KhvxymEsoFg_Cb9MNuDF-7" value="" style="endArrow=classic;html=1;rounded=0;exitX=1;exitY=0.5;exitDx=0;exitDy=0;entryX=0;entryY=0.25;entryDx=0;entryDy=0;" edge="1" source="KhvxymEsoFg_Cb9MNuDF-6" parent="1" target="KhvxymEsoFg_Cb9MNuDF-5">
          <mxGeometry width="50" height="50" relative="1" as="geometry">
            <mxPoint x="545" y="702" as="sourcePoint" />
            <mxPoint x="560" y="960" as="targetPoint" />
            <Array as="points">
              <mxPoint x="540" y="900" />
            </Array>
          </mxGeometry>
        </mxCell>
        <mxCell id="KhvxymEsoFg_Cb9MNuDF-8" value="Parse JSON" style="whiteSpace=wrap;html=1;aspect=fixed;" vertex="1" parent="1">
          <mxGeometry x="335" y="920" width="130" height="130" as="geometry" />
        </mxCell>
        <mxCell id="KhvxymEsoFg_Cb9MNuDF-9" value="" style="endArrow=classic;html=1;rounded=0;exitX=0;exitY=0.5;exitDx=0;exitDy=0;entryX=1;entryY=0.5;entryDx=0;entryDy=0;" edge="1" parent="1" source="KhvxymEsoFg_Cb9MNuDF-5" target="KhvxymEsoFg_Cb9MNuDF-8">
          <mxGeometry width="50" height="50" relative="1" as="geometry">
            <mxPoint x="655" y="890" as="sourcePoint" />
            <mxPoint x="655" y="930" as="targetPoint" />
          </mxGeometry>
        </mxCell>
        <mxCell id="KhvxymEsoFg_Cb9MNuDF-10" value="" style="endArrow=classic;html=1;rounded=0;exitX=0;exitY=0.5;exitDx=0;exitDy=0;entryX=1;entryY=0.5;entryDx=0;entryDy=0;" edge="1" parent="1" source="KhvxymEsoFg_Cb9MNuDF-8" target="c4icf9OXhYZbjCXFVbX7-26">
          <mxGeometry width="50" height="50" relative="1" as="geometry">
            <mxPoint x="590" y="995" as="sourcePoint" />
            <mxPoint x="475" y="995" as="targetPoint" />
          </mxGeometry>
        </mxCell>
      </root>
    </mxGraphModel>
  </diagram>
</mxfile>
